<svg id="btg" xmlns="http://www.w3.org/2000/svg" viewBox="0 0 600 505"><defs><style>.cls-1{fill:#fff;}.cls-2,.cls-3{fill:#231f20;}.cls-2{fill-rule:evenodd;}</style></defs><path class="cls-1" d="M248.83,351.53c-16.25,0-23.7,6.84-23.7,22.46v2.39c0,14.83,6.48,22,21.74,22,4.89,0,9.77-.89,13.23-3.64v1.77c0,8.35-3.64,11.1-12.16,11.1h-5.1c-2.92.05-4.24.57-6,3.45h0a80.12,80.12,0,1,1,4.74-77h3.68a83.47,83.47,0,1,0-8.54,83.13h11.94c15.71,0,23.79-5.94,23.79-21.12v-22.9c0-15.09-7.72-21.66-23.61-21.66m11.36,26.36c0,8.35-2.93,10.92-11.36,10.92-9.5,0-11.36-3.28-11.36-13v-1.51c0-9.58,1.68-13,11.36-13,9.5,0,11.36,3.38,11.36,13.14ZM134.24,334.76v43.58c0,16.15,7.45,22.9,23.7,22.9,16.86,0,24.32-6.57,24.32-22.81v-4.18c0-15.26-6.93-22.72-22-22.72-4.79,0-10,1-13.58,3.73V332.8Zm24.14,26.53c8.52,0,11.54,3.38,11.54,13.41v3.73c0,9.76-3,13.13-11.72,13.13s-11.71-3.37-11.71-13.22v-5.06c0-9,3-12,11.89-12M219,363l2-9.94H203.47V339.46l-12.34,1.86v40.57c0,14,5.51,18.19,20.51,18.19h6.56l2.05-9.85h-7.73c-6.83,0-9.05-1.69-9.05-9.14V363Z"/><path class="cls-1" d="M306.69,355c-12.14,0-17.79,6-17.79,18.87v35h3.83V391c2.77,3.6,7.93,5.71,14.18,5.71,12.08,0,17.47-5.82,17.47-18.88v-4c0-13-5.45-18.76-17.69-18.76m13.75,22.74c0,11.05-3.66,15.16-13.53,15.16-9.34,0-14.07-4.56-14.07-13.54v-5.49c0-10.76,4-15.15,13.85-15.15s13.75,4.21,13.75,15Zm165.1-22.1H475.16l-.86,3.72h11.24c10.28,0,13.75,2.74,13.75,10.85v3.92c-2.55-2.55-7.06-3.85-13.43-3.85-10.16,0-15.1,4.31-15.1,13.17v.65c0,8.3,4.86,12.52,14.46,12.52h2.58c10.16,0,15.32-4.22,15.32-12.52V370.25c0-10.35-5.1-14.57-17.58-14.57m13.75,29c0,5.94-3.25,8.26-11.6,8.26h-1.61c-8.06,0-11.49-2.64-11.49-8.8v-.65c0-6.69,3.27-9.55,11-9.55h.64c9.19,0,13.11,2.76,13.11,9.23Zm11.74,12h3.83V340.28H511ZM424.75,359.4l.86-3.72H408.47V345l-3.93.7V382.2c0,10.38,3.89,14.24,14.35,14.24h5.65l.72-3.72h-6.37c-7.89,0-10.42-2.5-10.42-10.31v-23Zm35.45,21.08c0,9.59-3,12.67-12.35,12.67-9.07,0-12.13-3.2-12.13-12.67v-24.8h-3.94v24.8c0,11.8,4.51,16.39,16.07,16.39S464,392.12,464,380.48v-24.8H460.2Zm-115-24.8H334.86L334,359.4h11.24c10.2,0,13.64,2.74,13.64,10.85v3.92c-2.54-2.55-7.05-3.85-13.42-3.85-10.17,0-15.11,4.31-15.11,13.17v.65c0,8.3,4.9,12.52,14.57,12.52h2.58c10.1,0,15.21-4.22,15.21-12.52V370.25c0-10.35-5.06-14.57-17.47-14.57m13.64,29c0,6-3.11,8.26-11.49,8.26h-1.61c-8.13,0-11.6-2.64-11.6-8.8v-.65c0-6.69,3.28-9.55,10.95-9.55h.65c9.19,0,13.1,2.76,13.1,9.23Zm14.71-6.9v-3.44c0-11,3.77-14.94,14.4-14.94h9l.85-3.72H388c-12.68,0-18.34,5.76-18.34,18.66v3.44c0,12.91,5.66,18.66,18.34,18.66h9.08l.86-3.72H388c-10.37,0-14.4-4.19-14.4-14.94"/><path class="cls-1" d="M298.44,300.88l-9.32,24.05h2l2.87-7.7h10.77l2.9,7.7h2.13l-9.29-24.05Zm-3.78,14.56L299.38,303l4.73,12.46Z"/><path class="cls-1" d="M320.63,300.88l-9.32,24.05h2l2.87-7.7H327l2.9,7.7H332l-9.29-24.05Zm-3.78,14.56L321.58,303l4.72,12.46Z"/><rect class="cls-1" x="335.49" y="300.88" width="1.99" height="24.05"/><path class="cls-1" d="M353.1,306.91a5.22,5.22,0,0,1,1.2-2.51,5,5,0,0,1,2.47-1.36,17,17,0,0,1,4.08-.4h2.27c.74,0,1.6,0,2.56.07l.41-1.83-1.66-.05h-3.54a19,19,0,0,0-4.85.52,6.92,6.92,0,0,0-3.12,1.7,6.7,6.7,0,0,0-1.69,3.1,18.51,18.51,0,0,0-.51,4.71v4.08a18.65,18.65,0,0,0,.51,4.72,6.87,6.87,0,0,0,1.67,3.1,6.54,6.54,0,0,0,3.11,1.72,18.84,18.84,0,0,0,4.84.53l2.52,0,2.28-.05.4-1.82-2.49.05h-2.71a17,17,0,0,1-3.91-.37,5,5,0,0,1-2.49-1.3,5.13,5.13,0,0,1-1.3-2.53,18.85,18.85,0,0,1-.37-4v-4.08A20.51,20.51,0,0,1,353.1,306.91Z"/><path class="cls-1" d="M382.62,308.72a5.24,5.24,0,0,0-2.38-1.3,15.41,15.41,0,0,0-6.89,0,5.18,5.18,0,0,0-2.38,1.32,5.53,5.53,0,0,0-1.37,2.44,14,14,0,0,0-.44,3.79v2.56a14,14,0,0,0,.44,3.79,5.48,5.48,0,0,0,1.37,2.44,5.18,5.18,0,0,0,2.38,1.32,15.41,15.41,0,0,0,6.89,0,5.18,5.18,0,0,0,2.38-1.32,5.48,5.48,0,0,0,1.37-2.44,14,14,0,0,0,.44-3.79V315a14.12,14.12,0,0,0-.44-3.8A5.4,5.4,0,0,0,382.62,308.72Zm-.19,8.81a13.29,13.29,0,0,1-.3,3.13,4,4,0,0,1-1,1.89,3.43,3.43,0,0,1-1.74.94,11.37,11.37,0,0,1-2.61.26,10.82,10.82,0,0,1-2.62-.27,3.62,3.62,0,0,1-1.74-1,4.13,4.13,0,0,1-1-1.9,13,13,0,0,1-.31-3.09V315a13.22,13.22,0,0,1,.31-3.13,4,4,0,0,1,1-1.89,3.43,3.43,0,0,1,1.74-.94,11.4,11.4,0,0,1,2.62-.26,10.93,10.93,0,0,1,2.6.27,3.54,3.54,0,0,1,1.75,1,4,4,0,0,1,1,1.9,13.18,13.18,0,0,1,.3,3.08Z"/><path class="cls-1" d="M401.64,308.68a5.07,5.07,0,0,0-2.2-1.23,12.78,12.78,0,0,0-3.6-.42,12.32,12.32,0,0,0-3.59.44,5.28,5.28,0,0,0-2.22,1.25,4.21,4.21,0,0,0-1.11,2,10.76,10.76,0,0,0-.3,2.64v11.58h1.95V313.55a12.24,12.24,0,0,1,.16-2,3,3,0,0,1,.69-1.51,3.5,3.5,0,0,1,1.59-.93,12.78,12.78,0,0,1,5.64,0,3.24,3.24,0,0,1,1.58.91,2.91,2.91,0,0,1,.7,1.5,12.75,12.75,0,0,1,.15,2.08v11.38h2V313.35a10.88,10.88,0,0,0-.31-2.67A4.44,4.44,0,0,0,401.64,308.68Z"/><path class="cls-1" d="M409.86,302.81l-2,.37v15.87a11.77,11.77,0,0,0,.3,2.93,3.63,3.63,0,0,0,1,1.78,3.92,3.92,0,0,0,1.87.92,13.86,13.86,0,0,0,2.89.25h2.23l.37-1.72H414a9,9,0,0,1-2.08-.19,2.43,2.43,0,0,1-1.25-.66,2.53,2.53,0,0,1-.62-1.28,10.59,10.59,0,0,1-.17-2.06v-9.76h6.75l.38-1.69h-7.13Z"/><path class="cls-1" d="M426.61,307.5a11.81,11.81,0,0,0-2.67.27,4.27,4.27,0,0,0-1.92,1,4.17,4.17,0,0,0-1.17,1.84,9.11,9.11,0,0,0-.39,2.9v11.45h2V313.72a10.05,10.05,0,0,1,.2-2.18,3.1,3.1,0,0,1,.68-1.37,2.71,2.71,0,0,1,1.3-.73,8.81,8.81,0,0,1,2.11-.21h1.84c.65,0,1.11,0,1.4.05l.38-1.75c-.39,0-.92,0-1.59,0Z"/><path class="cls-1" d="M444.07,308.84a5.72,5.72,0,0,0-2.28-1,15.81,15.81,0,0,0-3.43-.32l-2.53,0-2.23.05-.37,1.76c.75-.05,1.58-.08,2.5-.09h2.63a14.73,14.73,0,0,1,2.74.21,4,4,0,0,1,1.69.71,2.48,2.48,0,0,1,.84,1.32,7.41,7.41,0,0,1,.24,2v2a4.23,4.23,0,0,0-2-1.22,12.78,12.78,0,0,0-3.71-.43c-2.3,0-4,.42-5,1.28a5.07,5.07,0,0,0-1.54,4.12v.47a4.76,4.76,0,0,0,1.52,3.95c1,.82,2.68,1.22,5,1.22h5.54a2.56,2.56,0,0,0,1.67-.39,2.09,2.09,0,0,0,.42-1.53v-9.7a7.76,7.76,0,0,0-.4-2.68A4,4,0,0,0,444.07,308.84Zm-.2,14.37h-5.74a10.83,10.83,0,0,1-2.25-.2,3.34,3.34,0,0,1-1.42-.65,2.47,2.47,0,0,1-.74-1.08,4.67,4.67,0,0,1-.22-1.55v-.44a3.51,3.51,0,0,1,1.05-2.92,5.83,5.83,0,0,1,3.54-.83h.44a14,14,0,0,1,2.28.17,4.81,4.81,0,0,1,1.68.57,2.73,2.73,0,0,1,1,1.1,4,4,0,0,1,.35,1.77Z"/><path class="cls-1" d="M452.58,302.81l-2,.37v15.87a11.72,11.72,0,0,0,.31,2.93,3.62,3.62,0,0,0,1,1.78,4,4,0,0,0,1.88.92,13.76,13.76,0,0,0,2.88.25h2.23l.37-1.72h-2.6a9,9,0,0,1-2.07-.19,2.39,2.39,0,0,1-1.25-.66,2.46,2.46,0,0,1-.63-1.28,10.59,10.59,0,0,1-.17-2.06v-9.76h6.76l.37-1.69h-7.13Z"/><path class="cls-1" d="M474.81,308.84a5.85,5.85,0,0,0-2.28-1,15.94,15.94,0,0,0-3.43-.32l-2.53,0-2.23.05-.37,1.76c.74-.05,1.57-.08,2.5-.09h2.63a14.88,14.88,0,0,1,2.74.21,4,4,0,0,1,1.68.71,2.56,2.56,0,0,1,.85,1.32,7.45,7.45,0,0,1,.23,2v2a4.2,4.2,0,0,0-2-1.22,12.86,12.86,0,0,0-3.72-.43c-2.29,0-3.95.42-5,1.28a5.1,5.1,0,0,0-1.53,4.12v.47a4.73,4.73,0,0,0,1.52,3.95c1,.82,2.67,1.22,5,1.22h5.54a2.54,2.54,0,0,0,1.67-.39,2,2,0,0,0,.43-1.53v-9.7a7.75,7.75,0,0,0-.41-2.68A4,4,0,0,0,474.81,308.84Zm-.21,14.37h-5.74a10.66,10.66,0,0,1-2.24-.2,3.29,3.29,0,0,1-1.42-.65,2.41,2.41,0,0,1-.75-1.08,5,5,0,0,1-.21-1.55v-.44a3.51,3.51,0,0,1,1-2.92,5.84,5.84,0,0,1,3.55-.83h.44a14.14,14.14,0,0,1,2.28.17,4.76,4.76,0,0,1,1.67.57,2.73,2.73,0,0,1,1,1.1,3.85,3.85,0,0,1,.35,1.77Z"/><path class="cls-1" d="M493.72,309.12a5.16,5.16,0,0,0-2.16-1.53A9.68,9.68,0,0,0,488,307a7.69,7.69,0,0,0-5.49,1.76c-1.22,1.17-1.84,3.16-1.84,6V317a14.07,14.07,0,0,0,.43,3.77,5.5,5.5,0,0,0,1.33,2.46,5.19,5.19,0,0,0,2.35,1.34,12.85,12.85,0,0,0,3.46.4h5.34a2.53,2.53,0,0,0,1.68-.39,2.14,2.14,0,0,0,.41-1.53V299.84h-2Zm0,14.09h-5.4a11.45,11.45,0,0,1-2.71-.27,3.48,3.48,0,0,1-1.74-1A4.15,4.15,0,0,1,483,320a14.49,14.49,0,0,1-.27-3.07v-2.2a12.12,12.12,0,0,1,.3-2.95,4,4,0,0,1,1-1.84,3.56,3.56,0,0,1,1.69-1,10,10,0,0,1,2.48-.27,12,12,0,0,1,2.22.19,4.28,4.28,0,0,1,1.79.74,3.63,3.63,0,0,1,1.18,1.61,7.52,7.52,0,0,1,.42,2.76Z"/><path class="cls-1" d="M514.69,311.17a5.4,5.4,0,0,0-1.37-2.45,5.19,5.19,0,0,0-2.38-1.3,13.3,13.3,0,0,0-3.44-.39,13.44,13.44,0,0,0-3.45.39,5.23,5.23,0,0,0-2.38,1.32,5.52,5.52,0,0,0-1.36,2.44,13.65,13.65,0,0,0-.44,3.79v2.56a13.65,13.65,0,0,0,.44,3.79,5.46,5.46,0,0,0,1.36,2.44,5.23,5.23,0,0,0,2.38,1.32,13.44,13.44,0,0,0,3.45.39,13.3,13.3,0,0,0,3.44-.39,5.13,5.13,0,0,0,2.38-1.32,5.48,5.48,0,0,0,1.37-2.44,13.65,13.65,0,0,0,.44-3.79V315A13.72,13.72,0,0,0,514.69,311.17Zm-1.55,6.36a13.29,13.29,0,0,1-.3,3.13,4.14,4.14,0,0,1-1,1.89,3.47,3.47,0,0,1-1.74.94,11.46,11.46,0,0,1-2.62.26,10.82,10.82,0,0,1-2.62-.27,3.62,3.62,0,0,1-1.74-1,4.23,4.23,0,0,1-1-1.9,13,13,0,0,1-.3-3.09V315a13.29,13.29,0,0,1,.3-3.13,4.14,4.14,0,0,1,1-1.89,3.43,3.43,0,0,1,1.74-.94,11.4,11.4,0,0,1,2.62-.26,10.87,10.87,0,0,1,2.6.27,3.61,3.61,0,0,1,1.76,1,4.13,4.13,0,0,1,1,1.9,13.18,13.18,0,0,1,.3,3.08Z"/><rect class="cls-1" x="89.68" y="214.94" width="425.83" height="2.17"/><path class="cls-2" d="M344.05,94.74h10.52c6,0,10.11.25,12.22.78a13.58,13.58,0,0,1,7.39,4.58,14.73,14.73,0,0,1,.07,17.4,13.82,13.82,0,0,1-7.7,4.61,54.27,54.27,0,0,1-10.29.83v-5l2,0a23.35,23.35,0,0,0,7.94-1,8.1,8.1,0,0,0,3.95-3.19,8.85,8.85,0,0,0,1.44-4.94,8.73,8.73,0,0,0-1.44-4.86,8,8,0,0,0-3.79-3.14c-1.57-.62-4.13-.93-7.71-.93h-9.34v47.64h-5.29Z"/><polygon class="cls-2" points="311.29 94.74 335.91 147.52 330.24 147.52 322.8 131.86 322.8 131.86 310.63 105.81 299.12 130.17 290.92 147.52 285.04 147.52 309.96 94.74 311.29 94.74"/><polygon class="cls-2" points="166.2 70.42 191.77 130.09 217.72 70.42 226.05 70.81 192.54 147.52 190.8 147.52 157.87 70.42 166.2 70.42"/><rect class="cls-3" x="138.11" y="70.42" width="7.75" height="77.1"/><polygon class="cls-2" points="89.68 70.42 97.43 70.42 97.43 139.97 127.26 139.97 127.26 147.52 89.68 147.52 89.68 70.42"/><polygon class="cls-2" points="489.85 94.74 495.15 94.74 495.15 142.37 515.51 142.37 515.51 147.52 489.85 147.52 489.85 94.74"/><polygon class="cls-2" points="398.95 99.88 398.95 94.74 427.85 94.74 427.85 99.88 416.08 99.88 416.08 147.52 410.72 147.52 410.72 99.88 398.95 99.88"/><rect class="cls-3" x="386.82" y="94.74" width="5.29" height="52.78"/><path class="cls-2" d="M279.09,104.48l-4.17,3.19a22.75,22.75,0,0,0-8.27-6.8,24.17,24.17,0,0,0-10.6-2.31,23.46,23.46,0,0,0-11.69,3,21.68,21.68,0,0,0-8.33,8.15,22.56,22.56,0,0,0-3,11.5,21.58,21.58,0,0,0,6.61,16.12q6.62,6.48,16.7,6.47a23.47,23.47,0,0,0,18.54-8.67l4.17,3.16a26.71,26.71,0,0,1-9.85,7.77,31.1,31.1,0,0,1-13.19,2.74q-13.86,0-21.86-9.22a27.84,27.84,0,0,1-6.71-18.8,26.14,26.14,0,0,1,8.12-19.49q8.15-7.92,20.38-7.92a30,30,0,0,1,13.34,2.91A26,26,0,0,1,279.09,104.48Z"/><polygon class="cls-2" points="457.09 94.74 481.72 147.52 476.05 147.52 468.6 131.86 468.61 131.86 456.43 105.81 444.92 130.17 436.73 147.52 430.85 147.52 455.77 94.74 457.09 94.74"/><rect class="cls-3" x="138.11" y="70.42" width="7.75" height="77.1"/><polygon class="cls-2" points="141.98 76.8 145.86 70.42 145.86 147.52 141.98 147.52 141.98 76.8"/><rect class="cls-3" x="386.82" y="94.85" width="5.29" height="52.67"/><rect class="cls-3" x="386.82" y="94.85" width="5.29" height="52.67"/><polygon class="cls-2" points="389.47 99.21 392.12 94.85 392.12 147.52 389.47 147.52 389.47 99.21"/></svg>