<svg id="btg" xmlns="http://www.w3.org/2000/svg" viewBox="0 0 2021.37 460"><defs><style>.cls-1,.cls-2{fill:#fff;}.cls-2{fill-rule:evenodd;}</style></defs><rect class="cls-1" x="1145.05" y="86.78" width="3.5" height="286.43"/><path class="cls-1" d="M1507,201.26c-27.48,0-40.09,11.57-40.09,38v4.05c0,25.08,11,37.24,36.79,37.24,8.26,0,16.52-1.5,22.37-6.16v3c0,14.11-6.15,18.77-20.57,18.77h-8.63c-4.94.09-7.17,1-10.15,5.83h0a135.28,135.28,0,0,1-114.59,63.12c-74.74,0-135.55-60.81-135.55-135.55S1297.35,94,1372.09,94a135.72,135.72,0,0,1,122.61,77.72h6.23a141.36,141.36,0,0,0-128.84-83.37c-77.86,0-141.21,63.34-141.21,141.2s63.35,141.2,141.21,141.2a140.9,140.9,0,0,0,114.39-58.38h20.2c26.58,0,40.25-10.07,40.25-35.74V237.9c0-25.52-13.07-36.64-40-36.64m19.22,44.6c0,14.12-5,18.47-19.22,18.47-16.07,0-19.22-5.55-19.22-21.92v-2.55c0-16.22,2.85-22.08,19.22-22.08,16.07,0,19.22,5.71,19.22,22.23Zm-213.08-73v73.73c0,27.33,12.62,38.75,40.09,38.75,28.53,0,41.15-11.12,41.15-38.6v-7c0-25.83-11.72-38.45-37.24-38.45-8.11,0-17,1.66-23,6.31v-38Zm40.84,44.9c14.42,0,19.53,5.71,19.53,22.68v6.3c0,16.52-5.11,22.23-19.83,22.23s-19.82-5.71-19.82-22.38v-8.55c0-15.17,5.11-20.28,20.12-20.28m102.57,2.86,3.45-16.82h-29.73v-23L1409.38,184v68.62c0,23.73,9.31,30.79,34.68,30.79h11.11l3.46-16.67h-13.07c-11.56,0-15.31-2.86-15.31-15.47V220.64Z"/><path class="cls-1" d="M1604.88,207.19c-20.54,0-30.11,10.15-30.11,31.93v59.26h6.48V268c4.69,6.09,13.43,9.66,24,9.66,20.45,0,29.56-9.85,29.56-31.93v-6.74c0-22-9.23-31.75-29.92-31.75m23.26,38.49c0,18.69-6.2,25.63-22.9,25.63-15.8,0-23.81-7.7-23.81-22.9v-9.29c0-18.21,6.79-25.63,23.45-25.63s23.26,7.13,23.26,25.45Zm279.3-37.39h-17.56l-1.45,6.29h19c17.4,0,23.27,4.63,23.27,18.35v6.63c-4.31-4.31-11.94-6.5-22.72-6.5-17.2,0-25.55,7.29-25.55,22.27v1.1c0,14.05,8.22,21.18,24.46,21.18h4.37c17.19,0,25.92-7.13,25.92-21.18v-23.5c0-17.51-8.62-24.64-29.75-24.64m23.27,49c0,10.05-5.5,14-19.62,14h-2.73c-13.63,0-19.44-4.45-19.44-14.88v-1.1c0-11.32,5.54-16.16,18.52-16.16h1.1c15.54,0,22.17,4.67,22.17,15.62Zm19.86,20.27h6.48V182.24h-6.48Zm-146-63,1.45-6.29h-29v-18l-6.66,1.19v61.68c0,17.56,6.58,24.09,24.28,24.09h9.57l1.21-6.29h-10.78c-13.34,0-17.62-4.24-17.62-17.44V214.58Zm60,35.65c0,16.24-5.07,21.45-20.89,21.45-15.35,0-20.53-5.41-20.53-21.45V208.29h-6.66v41.94c0,20,7.62,27.74,27.19,27.74s27.37-8,27.37-27.74V208.29h-6.48Zm-194.49-41.94h-17.56l-1.45,6.29h19c17.26,0,23.08,4.63,23.08,18.35v6.63c-4.3-4.31-11.93-6.5-22.72-6.5-17.19,0-25.55,7.29-25.55,22.27v1.1c0,14.05,8.29,21.18,24.64,21.18h4.38c17.07,0,25.73-7.13,25.73-21.18v-23.5c0-17.51-8.56-24.64-29.56-24.64m23.08,49c0,10.19-5.27,14-19.43,14H1671c-13.75,0-19.62-4.45-19.62-14.88v-1.1c0-11.32,5.54-16.16,18.53-16.16H1671c15.55,0,22.17,4.67,22.17,15.62Zm24.88-11.66v-5.83c0-18.66,6.37-25.27,24.36-25.27h15.19l1.45-6.29h-16.64c-21.45,0-31,9.73-31,31.56v5.83c0,21.83,9.57,31.56,31,31.56h15.37l1.46-6.29h-16.83c-17.53,0-24.36-7.09-24.36-25.27"/><path class="cls-1" d="M1590.92,115.58l-15.77,40.68h3.42l4.86-13h18.23l4.91,13h3.6l-15.71-40.68Zm-6.4,24.63,8-21.09,8,21.09Z"/><path class="cls-1" d="M1628.45,115.58l-15.77,40.68h3.43l4.86-13h18.23l4.91,13h3.6L1632,115.58Zm-6.39,24.63,8-21.09,8,21.09Z"/><rect class="cls-1" x="1653.6" y="115.58" width="3.37" height="40.68"/><path class="cls-1" d="M1683.39,125.78a8.67,8.67,0,0,1,2-4.26,8.33,8.33,0,0,1,4.17-2.28,28.58,28.58,0,0,1,6.92-.69h3.82q1.89,0,4.35.12l.68-3.09c-1.06,0-2-.07-2.8-.08l-2.2,0h-3.8a32.08,32.08,0,0,0-8.19.88,11.44,11.44,0,0,0-5.29,2.89,11.3,11.3,0,0,0-2.86,5.23,31.56,31.56,0,0,0-.86,8v6.91a31.61,31.61,0,0,0,.86,8,11.71,11.71,0,0,0,2.83,5.26,11.22,11.22,0,0,0,5.26,2.91,32.06,32.06,0,0,0,8.2.89q2.16,0,4.26,0c1.38,0,2.67,0,3.85-.09l.68-3.08c-1.37,0-2.78.06-4.22.08s-3,0-4.57,0a29.08,29.08,0,0,1-6.63-.63,7.91,7.91,0,0,1-6.4-6.48,30.94,30.94,0,0,1-.63-6.83v-6.91A34.24,34.24,0,0,1,1683.39,125.78Z"/><path class="cls-1" d="M1733.33,128.84a8.92,8.92,0,0,0-4-2.2,26,26,0,0,0-11.65,0,8.85,8.85,0,0,0-4,2.22,9.36,9.36,0,0,0-2.31,4.15,23.16,23.16,0,0,0-.75,6.4v4.34a23.26,23.26,0,0,0,.75,6.4,9.37,9.37,0,0,0,2.31,4.14,8.77,8.77,0,0,0,4,2.23,26,26,0,0,0,11.65,0,8.77,8.77,0,0,0,4-2.23,9.37,9.37,0,0,0,2.31-4.14,23.26,23.26,0,0,0,.75-6.4v-4.34a23.49,23.49,0,0,0-.75-6.43A9.1,9.1,0,0,0,1733.33,128.84Zm-.31,14.91a21.7,21.7,0,0,1-.52,5.28,6.85,6.85,0,0,1-1.65,3.2,5.86,5.86,0,0,1-2.95,1.6,19.14,19.14,0,0,1-4.42.43,18.48,18.48,0,0,1-4.43-.45,6.22,6.22,0,0,1-3-1.63,6.9,6.9,0,0,1-1.65-3.2,21.54,21.54,0,0,1-.52-5.23v-4.34a21.79,21.79,0,0,1,.52-5.29,6.9,6.9,0,0,1,1.65-3.2,6,6,0,0,1,3-1.6,19.68,19.68,0,0,1,4.43-.43,18.48,18.48,0,0,1,4.39.46,6.23,6.23,0,0,1,3,1.63,6.91,6.91,0,0,1,1.65,3.23,21.5,21.5,0,0,1,.52,5.2Z"/><path class="cls-1" d="M1765.5,128.78a8.53,8.53,0,0,0-3.71-2.09,21.92,21.92,0,0,0-6.09-.71,21,21,0,0,0-6.09.74,9,9,0,0,0-3.74,2.12,7.15,7.15,0,0,0-1.88,3.37,18,18,0,0,0-.52,4.45v19.6h3.32V137a21,21,0,0,1,.25-3.46,5,5,0,0,1,1.17-2.54,5.72,5.72,0,0,1,2.69-1.57,17,17,0,0,1,4.8-.55,17.25,17.25,0,0,1,4.74.52,5.53,5.53,0,0,1,2.69,1.54,5,5,0,0,1,1.17,2.54,21.36,21.36,0,0,1,.26,3.52v19.25h3.31v-19.6a18.29,18.29,0,0,0-.51-4.51A7.43,7.43,0,0,0,1765.5,128.78Z"/><path class="cls-1" d="M1779.41,118.84l-3.31.62v26.86a19.65,19.65,0,0,0,.51,4.94,6.26,6.26,0,0,0,1.72,3,6.56,6.56,0,0,0,3.17,1.54,23.11,23.11,0,0,0,4.88.43h3.78l.62-2.91h-4.4a15.83,15.83,0,0,1-3.51-.32,4.15,4.15,0,0,1-2.11-1.11,4.27,4.27,0,0,1-1.06-2.17,17.57,17.57,0,0,1-.29-3.49V129.75h11.43l.63-2.86h-12.06Z"/><path class="cls-1" d="M1807.75,126.78a19.5,19.5,0,0,0-4.51.46A6.79,6.79,0,0,0,1798,132a15.5,15.5,0,0,0-.66,4.91v19.37h3.32v-19a16.39,16.39,0,0,1,.34-3.68,5.06,5.06,0,0,1,1.14-2.32,4.54,4.54,0,0,1,2.2-1.23,14.7,14.7,0,0,1,3.57-.37l3.12,0q1.62,0,2.37.09l.63-3c-.65,0-1.55-.06-2.69-.06Z"/><path class="cls-1" d="M1837.29,129a9.44,9.44,0,0,0-3.85-1.72,26.6,26.6,0,0,0-5.8-.54l-4.29,0c-1.44,0-2.7,0-3.77.08l-.63,3c1.26-.07,2.67-.12,4.23-.14l4.46,0a24.59,24.59,0,0,1,4.63.37,6.59,6.59,0,0,1,2.85,1.2,4.33,4.33,0,0,1,1.43,2.23,12.7,12.7,0,0,1,.4,3.46v3.43a7.07,7.07,0,0,0-3.43-2.06,21.59,21.59,0,0,0-6.28-.74q-5.84,0-8.43,2.17t-2.6,7v.8c0,3.09.86,5.31,2.57,6.69s4.54,2,8.46,2h9.37a4.41,4.41,0,0,0,2.83-.65,3.58,3.58,0,0,0,.71-2.6v-16.4a13.16,13.16,0,0,0-.69-4.55A6.71,6.71,0,0,0,1837.29,129Zm-.34,24.31h-9.71a18.22,18.22,0,0,1-3.8-.34,5.69,5.69,0,0,1-2.4-1.09,4,4,0,0,1-1.26-1.83,8.09,8.09,0,0,1-.37-2.63v-.74q0-3.54,1.77-4.94t6-1.4h.74a23.35,23.35,0,0,1,3.86.28,8.06,8.06,0,0,1,2.83,1,4.49,4.49,0,0,1,1.74,1.85,6.56,6.56,0,0,1,.6,3Z"/><path class="cls-1" d="M1851.69,118.84l-3.31.62v26.86a19.65,19.65,0,0,0,.51,4.94,6.18,6.18,0,0,0,1.72,3,6.56,6.56,0,0,0,3.17,1.54,23.11,23.11,0,0,0,4.88.43h3.77l.63-2.91h-4.4a15.77,15.77,0,0,1-3.51-.32,4.22,4.22,0,0,1-2.12-1.11,4.34,4.34,0,0,1-1-2.17,16.85,16.85,0,0,1-.29-3.49V129.75h11.43l.63-2.86h-12.06Z"/><path class="cls-1" d="M1889.29,129a9.49,9.49,0,0,0-3.86-1.72,26.54,26.54,0,0,0-5.8-.54l-4.28,0c-1.45,0-2.71,0-3.77.08l-.63,3c1.26-.07,2.66-.12,4.23-.14l4.45,0a24.51,24.51,0,0,1,4.63.37,6.69,6.69,0,0,1,2.86,1.2,4.33,4.33,0,0,1,1.43,2.23,13.11,13.11,0,0,1,.4,3.46v3.43a7.16,7.16,0,0,0-3.43-2.06,21.67,21.67,0,0,0-6.29-.74q-5.82,0-8.43,2.17t-2.59,7v.8c0,3.09.85,5.31,2.57,6.69s4.53,2,8.45,2h9.37a4.39,4.39,0,0,0,2.83-.65,3.53,3.53,0,0,0,.72-2.6v-16.4a13.16,13.16,0,0,0-.69-4.55A6.78,6.78,0,0,0,1889.29,129Zm-.34,24.31h-9.72a18.22,18.22,0,0,1-3.8-.34,5.69,5.69,0,0,1-2.4-1.09,3.94,3.94,0,0,1-1.25-1.83,8.08,8.08,0,0,1-.38-2.63v-.74q0-3.54,1.78-4.94t6-1.4h.74a23.44,23.44,0,0,1,3.86.28,8,8,0,0,1,2.82,1,4.45,4.45,0,0,1,1.75,1.85,6.56,6.56,0,0,1,.6,3Z"/><path class="cls-1" d="M1921.29,129.52a8.77,8.77,0,0,0-3.66-2.6,16.2,16.2,0,0,0-6-.94q-6.18,0-9.28,3t-3.12,10.11v3.72a24.2,24.2,0,0,0,.72,6.37,9.3,9.3,0,0,0,2.25,4.17,8.79,8.79,0,0,0,4,2.26,22.15,22.15,0,0,0,5.86.68h9a4.4,4.4,0,0,0,2.86-.65,3.69,3.69,0,0,0,.68-2.6v-39.2h-3.31Zm0,23.83h-9.15a19,19,0,0,1-4.57-.46,5.78,5.78,0,0,1-2.94-1.66,6.83,6.83,0,0,1-1.57-3.25,24.9,24.9,0,0,1-.46-5.2v-3.72a20,20,0,0,1,.52-5,6.82,6.82,0,0,1,1.62-3.11,6.14,6.14,0,0,1,2.86-1.6,16.94,16.94,0,0,1,4.2-.46,21,21,0,0,1,3.74.32,7.29,7.29,0,0,1,3,1.25,6.12,6.12,0,0,1,2,2.72,12.63,12.63,0,0,1,.72,4.68Z"/><path class="cls-1" d="M1956.77,133a9.21,9.21,0,0,0-2.32-4.14,8.86,8.86,0,0,0-4-2.2,26,26,0,0,0-11.65,0,8.85,8.85,0,0,0-4,2.22,9.36,9.36,0,0,0-2.31,4.15,23.2,23.2,0,0,0-.74,6.4v4.34a23.3,23.3,0,0,0,.74,6.4,9.37,9.37,0,0,0,2.31,4.14,8.77,8.77,0,0,0,4,2.23,26,26,0,0,0,11.65,0,8.72,8.72,0,0,0,4-2.23,9.48,9.48,0,0,0,2.32-4.14,23.69,23.69,0,0,0,.74-6.4v-4.34A23.93,23.93,0,0,0,1956.77,133Zm-2.63,10.77a22.28,22.28,0,0,1-.51,5.28,7,7,0,0,1-1.66,3.2,5.82,5.82,0,0,1-3,1.6,19.09,19.09,0,0,1-4.42.43,18.54,18.54,0,0,1-4.43-.45,6.14,6.14,0,0,1-2.94-1.63,6.82,6.82,0,0,1-1.66-3.2,22.11,22.11,0,0,1-.51-5.23v-4.34a22.37,22.37,0,0,1,.51-5.29,6.82,6.82,0,0,1,1.66-3.2,5.94,5.94,0,0,1,2.94-1.6,19.75,19.75,0,0,1,4.43-.43,18.63,18.63,0,0,1,4.4.46,6.2,6.2,0,0,1,3,1.63,7,7,0,0,1,1.66,3.23,22.07,22.07,0,0,1,.51,5.2Z"/><path class="cls-2" d="M672.91,195.69h25.26c14.47,0,24.27.62,29.33,1.89a32.44,32.44,0,0,1,17.73,11q6.93,8.29,6.91,20.88c0,8.44-2.23,15.38-6.73,20.88s-10.65,9.15-18.5,11.06q-7.18,1.73-24.69,2V251.31l4.86.06q13,0,19.06-2.38a19.54,19.54,0,0,0,9.5-7.65,21.28,21.28,0,0,0,3.44-11.85,21,21,0,0,0-3.44-11.68,19.08,19.08,0,0,0-9.11-7.53c-3.77-1.5-9.92-2.23-18.5-2.23H685.62V322.39H672.91Z"/><polygon class="cls-2" points="594.27 195.69 653.38 322.39 639.76 322.39 621.9 284.81 621.9 284.81 592.68 222.28 565.06 280.75 545.39 322.39 531.27 322.39 591.09 195.69 594.27 195.69"/><polygon class="cls-2" points="246 137.33 307.38 280.55 369.68 137.33 389.68 138.26 309.24 322.39 305.05 322.39 226 137.33 246 137.33"/><rect class="cls-1" x="178.58" y="137.33" width="18.6" height="185.06"/><polygon class="cls-2" points="62.33 137.33 80.93 137.33 80.93 304.26 152.54 304.26 152.54 322.39 62.33 322.39 62.33 137.33"/><polygon class="cls-2" points="1022.89 195.69 1035.6 195.69 1035.6 310.04 1084.48 310.04 1084.48 322.39 1022.89 322.39 1022.89 195.69"/><polygon class="cls-2" points="804.7 208.05 804.7 195.69 874.05 195.69 874.05 208.05 845.81 208.05 845.81 322.39 832.93 322.39 832.93 208.05 804.7 208.05"/><rect class="cls-1" x="775.58" y="195.69" width="12.71" height="126.7"/><path class="cls-2" d="M517,219.08l-10,7.67a54.54,54.54,0,0,0-19.86-16.32,57.8,57.8,0,0,0-25.44-5.56,56.24,56.24,0,0,0-28.05,7.29,52.23,52.23,0,0,0-20,19.56,54.14,54.14,0,0,0-7.12,27.62q0,23.21,15.88,38.7t40.09,15.53q26.59,0,44.5-20.82l10,7.59A64,64,0,0,1,493.33,319a74.2,74.2,0,0,1-31.65,6.59q-33.26,0-52.46-22.15-16.11-18.66-16.12-45.11,0-27.8,19.5-46.79t48.91-19a72.08,72.08,0,0,1,32,7A62.49,62.49,0,0,1,517,219.08Z"/><polygon class="cls-2" points="944.25 195.69 1003.37 322.39 989.75 322.39 971.89 284.81 971.89 284.81 942.66 222.28 915.05 280.75 895.37 322.39 881.25 322.39 941.07 195.69 944.25 195.69"/><rect class="cls-1" x="178.58" y="137.33" width="18.6" height="185.06"/><polygon class="cls-2" points="187.88 152.65 197.18 137.33 197.18 322.39 187.88 322.39 187.88 152.65"/><rect class="cls-1" x="775.58" y="195.96" width="12.71" height="126.43"/><rect class="cls-1" x="775.58" y="195.96" width="12.71" height="126.43"/><polygon class="cls-2" points="781.93 206.43 788.29 195.96 788.29 322.39 781.93 322.39 781.93 206.43"/></svg>